<svg id="Layer_1" data-name="Layer 1" xmlns="http://www.w3.org/2000/svg" viewBox="0 0 216.52 68.38"><defs><style>.cls-1{fill:#d2d2d2;}.cls-2{fill:#fff;}</style></defs><title>clients-servifacil</title><path class="cls-1" d="M2521,2518.44l-4.95-1.45c-1.66-.5-2.2-1.17-2.2-2.74,0-2.06.88-2.38,3-2.38h0.38a39.44,39.44,0,0,1,6.79.66l0.32,0.1,0.17-.29a6.09,6.09,0,0,0,.62-3.75l0-.25-0.24-.08a34.08,34.08,0,0,0-7.44-.82c-3,0-5,.44-6.34,1.4-1.52,1.07-2.26,2.84-2.26,5.38a7,7,0,0,0,1.47,4.7,8.31,8.31,0,0,0,4.15,2.44l5,1.48c1.37,0.4,1.86.85,1.86,2.53,0,2.2-.82,2.55-3.47,2.55h-0.33a55.78,55.78,0,0,1-7.42-.6l-0.28,0-0.14.24a6.46,6.46,0,0,0-.56,3.7l0,0.29,0.29,0.06a41.53,41.53,0,0,0,7.81.82h0.29c3.22,0,5.18-.42,6.54-1.35,1.57-1.06,2.3-2.82,2.3-5.53a7.1,7.1,0,0,0-1.36-4.7A7.88,7.88,0,0,0,2521,2518.44Z" transform="translate(-2441.33 -2485.71)"/><path class="cls-1" d="M2536.68,2513.37c-3.23,0-5.33.76-6.63,2.41-1.13,1.44-1.64,3.54-1.64,6.83,0,7.13,2.4,9.78,8.87,9.78a29.08,29.08,0,0,0,6.85-.77l0.22-.08,0-.24a5.23,5.23,0,0,0-.67-3.44l-0.17-.25-0.29.08a36.91,36.91,0,0,1-5.85.53c-2.89,0-3.69-.71-3.87-3.72a40.77,40.77,0,0,0,5,.27,33.24,33.24,0,0,0,4.58-.25,1.69,1.69,0,0,0,1.64-1.67c0.42-3.38,0-5.69-1.39-7.24S2539.88,2513.37,2536.68,2513.37Zm3.42,7.82-6.6.06c0.1-3.21.65-3.75,3.42-3.75a3.38,3.38,0,0,1,2.53.67A4.26,4.26,0,0,1,2540.1,2521.18Z" transform="translate(-2441.33 -2485.71)"/><path class="cls-1" d="M2560,2513.56l-0.22,0a5.72,5.72,0,0,0-1.22-.12,11.15,11.15,0,0,0-6.13,2l-0.59-1.77-0.2-.07a3.24,3.24,0,0,0-1-.12,5.34,5.34,0,0,0-2.62.58l-0.17.13v17.72l0.32,0.08a9.3,9.3,0,0,0,2.13.21,9.17,9.17,0,0,0,2.11-.21l0.31-.08v-13.28a33,33,0,0,1,5.12-.44,13.2,13.2,0,0,1,1.46.07l0.24,0,0.14-.2a6.44,6.44,0,0,0,.38-4.26Z" transform="translate(-2441.33 -2485.71)"/><path class="cls-1" d="M2577.13,2513.56a10.08,10.08,0,0,0-2.37.25l-0.22.06-4.09,13.26-4.12-13.27-0.22-.06a10.06,10.06,0,0,0-2.37-.25,8.62,8.62,0,0,0-2.26.26l-0.42.12,6.32,17.94,0.22,0.05a14,14,0,0,0,5.69,0l0.22-.05,6.32-17.94-0.42-.12A8.62,8.62,0,0,0,2577.13,2513.56Z" transform="translate(-2441.33 -2485.71)"/><path class="cls-1" d="M2586.51,2506.83l-0.19-.07a7.73,7.73,0,0,0-4.47,0l-0.18.07-0.06.19a6.93,6.93,0,0,0,0,4l0.06,0.18,0.17,0.07a7.15,7.15,0,0,0,4.49,0l0.18-.07,0.06-.19a7.57,7.57,0,0,0,0-4Z" transform="translate(-2441.33 -2485.71)"/><path class="cls-1" d="M2584.09,2513.6a9.68,9.68,0,0,0-2.12.21l-0.32.08v18l0.32,0.08a10.72,10.72,0,0,0,4.23,0l0.32-.08v-18l-0.32-.08A9.67,9.67,0,0,0,2584.09,2513.6Z" transform="translate(-2441.33 -2485.71)"/><path class="cls-1" d="M2602.35,2506.86l0-.24-0.24-.07a18.69,18.69,0,0,0-4.37-.56c-3.84,0-6,2.27-6,6.21v1.61h-2.21l-0.09.28a5.49,5.49,0,0,0,0,3.26l0.1,0.28h2.21v14.23l0.32,0.08a9.56,9.56,0,0,0,4.23,0l0.32-.08v-14.23h4.06l0.1-.28a5.48,5.48,0,0,0,0-3.26l-0.09-.28h-4.06v-1.37a2.8,2.8,0,0,1,.4-1.85,2.16,2.16,0,0,1,1.62-.4,18.81,18.81,0,0,1,2.87.23l0.28,0,0.14-.24A5,5,0,0,0,2602.35,2506.86Z" transform="translate(-2441.33 -2485.71)"/><path class="cls-1" d="M2620,2527.74l-0.38.1a4.29,4.29,0,0,1-.87.1,1.83,1.83,0,0,1-.57-0.08v-8.11c0-5.89-3.74-6.38-7.25-6.38a51.33,51.33,0,0,0-7.24.47l-0.31.05,0,0.31a5.5,5.5,0,0,0,.76,3.5l0.14,0.18,0.23,0c0.94-.08,2.85-0.22,5.09-0.22l1.36,0c1.88,0.06,2.43.36,2.43,2.21v1a17,17,0,0,0-3.59-.33c-0.87,0-1.8,0-2.62.12-4.18.49-4.91,2.23-4.91,5.7a6.76,6.76,0,0,0,.94,3.86c1,1.45,2.77,2.19,5.3,2.19a7.14,7.14,0,0,0,5.35-2.08,4.79,4.79,0,0,0,5.55,1.79l0.1,0,0.07-.08a4.46,4.46,0,0,0,.58-3.86Zm-6.66-3.91V2527a5.64,5.64,0,0,1-3.88,1.4h-0.24c-1.54,0-2-.47-2-2.12,0-1.94.21-2,1.07-2.12a33.28,33.28,0,0,1,4.87-.34h0.17Z" transform="translate(-2441.33 -2485.71)"/><path class="cls-1" d="M2609.6,2512.58l0.21,0.14,6.82-3.66-0.06-.3a4.7,4.7,0,0,0-2.12-3.3l-0.25-.18-6.27,4.81,0.09,0.28A3.9,3.9,0,0,0,2609.6,2512.58Z" transform="translate(-2441.33 -2485.71)"/><path class="cls-1" d="M2636,2527.47l-0.27.05a48.32,48.32,0,0,1-5.65.57,3.2,3.2,0,0,1-2.44-.81c-0.78-.8-1.11-2.3-1.06-4.74,0-2.93.63-4.88,3.32-4.88a42.29,42.29,0,0,1,5.48.57l0.29,0.06,0.15-.25a5.57,5.57,0,0,0,.62-3.46l0-.23-0.22-.08a28.33,28.33,0,0,0-6.61-.83,7.68,7.68,0,0,0-5.92,2.19c-1.38,1.5-2.11,3.83-2.14,6.9-0.06,3.52.72,6.12,2.31,7.73a7.8,7.8,0,0,0,5.79,2.05,31.42,31.42,0,0,0,6.91-.83l0.23-.08,0-.25a5.7,5.7,0,0,0-.64-3.46Z" transform="translate(-2441.33 -2485.71)"/><path class="cls-1" d="M2644.76,2506.83l-0.19-.07a7.72,7.72,0,0,0-4.47,0l-0.18.07-0.06.19a6.89,6.89,0,0,0,0,4l0.06,0.18,0.17,0.07a7.15,7.15,0,0,0,4.49,0l0.18-.07,0.06-.19a7.55,7.55,0,0,0,0-4Z" transform="translate(-2441.33 -2485.71)"/><path class="cls-1" d="M2642.34,2513.6a9.69,9.69,0,0,0-2.12.21l-0.32.08v18l0.32,0.08a10.72,10.72,0,0,0,4.23,0l0.32-.08v-18l-0.32-.08A9.67,9.67,0,0,0,2642.34,2513.6Z" transform="translate(-2441.33 -2485.71)"/><path class="cls-1" d="M2657.77,2528.37l-0.06-.38-0.38,0c-0.39,0-1.72,0-2.15,0-0.95,0-1.34-.19-1.34-1.37v-19.74l-0.33-.07a6.71,6.71,0,0,0-1.26-.11,7.87,7.87,0,0,0-3,.54l-0.24.11v19.67c0,4.66,2.74,5.3,5.71,5.3a7.55,7.55,0,0,0,2-.15l0.11,0,0.08-.09A4.52,4.52,0,0,0,2657.77,2528.37Z" transform="translate(-2441.33 -2485.71)"/><path class="cls-1" d="M2441.34,2508.57l1.23,10.15a2.06,2.06,0,0,0,2.13,1.62,42.53,42.53,0,0,1-.85,10.84,53.08,53.08,0,0,0-1,9.23,6.62,6.62,0,0,0,1.7,4.67,6,6,0,0,0,4.33,1.8,6.22,6.22,0,0,0,6.24-6.47,14.54,14.54,0,0,0-.42-2.9,18.59,18.59,0,0,1-.43-6.88,4.85,4.85,0,0,1,2.79-4.05v0.9a1.67,1.67,0,0,0,0,.26v10.86a8,8,0,0,0,4,6.92h-1.79a4.3,4.3,0,0,0-4.29,4.29v4.29h42.74v-4.29a4.29,4.29,0,0,0-4.29-4.29h-1.82a8,8,0,0,0,4-6.92v-44.85a8,8,0,0,0-8-8h-22.43a8,8,0,0,0-8,8v0.48h-0.83a1.82,1.82,0,0,0-2,1.8l0.41,4.71-1-.68a3.12,3.12,0,0,0-3.32.09l-8.22,6.16a1.77,1.77,0,0,0-.71,1.78A1.39,1.39,0,0,0,2441.34,2508.57Zm24.34-14.28H2487v10.58h-21.32v-10.58Zm-19,46.12a50.15,50.15,0,0,1,.95-8.79,45.08,45.08,0,0,0,.86-11.65,2.09,2.09,0,0,0,1.54-1.86l0-8,5.36-2.18,0.25,2.84a2.08,2.08,0,0,0,1.56,1.69v9.76a1.74,1.74,0,0,0,0,.27v0.72a8.15,8.15,0,0,0-6.53,7,21.21,21.21,0,0,0,.46,7.8,13,13,0,0,1,.36,2.36c0,3.11-2.55,4.07-3.84,2.72A3.91,3.91,0,0,1,2446.63,2540.41Z" transform="translate(-2441.33 -2485.71)"/><path class="cls-2" d="M2487.8,2537.29a8.83,8.83,0,0,0,1.62-5.19,8.32,8.32,0,0,0-1-4.11,8,8,0,0,0-2.64-2.79,16,16,0,0,0-3.84-1.76c-1.44-.46-3.06-0.88-4.81-1.26-1.37-.32-2.37-0.56-3-0.73a8.9,8.9,0,0,1-1.62-.63,3.26,3.26,0,0,1-1.08-.81,1.29,1.29,0,0,1-.29-0.86,1.56,1.56,0,0,1,.64-1.23l-0.47.3a3.33,3.33,0,0,1-3.76-5.5l0.16-.11a8.89,8.89,0,0,0-2.72,2.31,7.66,7.66,0,0,0-1.59,4.76,7.37,7.37,0,0,0,1.53,4.72,9.89,9.89,0,0,0,3.94,2.9,31.91,31.91,0,0,0,5.76,1.74c1.62,0.34,2.93.67,3.89,1a5.25,5.25,0,0,1,2.05,1.13,2,2,0,0,1,.63,1.59,2.5,2.5,0,0,1-1.2,2.09l0.45-.18a3.47,3.47,0,0,1,4,5.56A9.8,9.8,0,0,0,2487.8,2537.29Z" transform="translate(-2441.33 -2485.71)"/><path class="cls-2" d="M2466.77,2517.34a3.33,3.33,0,0,0,4.63.87l0.47-.3c4.61-2.66,9.73,1.18,10,1.37A3.33,3.33,0,0,0,2486,2514a19.52,19.52,0,0,0-5.65-2.91,14.06,14.06,0,0,0-12.52,1.48l-0.16.11A3.33,3.33,0,0,0,2466.77,2517.34Z" transform="translate(-2441.33 -2485.71)"/><path class="cls-2" d="M2485.16,2536.28a3.46,3.46,0,0,0-4.62-1.65l-0.45.18a12,12,0,0,1-3.68.71,7.86,7.86,0,0,1-6.7-3.13,3.47,3.47,0,1,0-5.41,4.35,14.87,14.87,0,0,0,12,5.72,17.49,17.49,0,0,0,7.24-1.55A3.49,3.49,0,0,0,2485.16,2536.28Z" transform="translate(-2441.33 -2485.71)"/><path class="cls-2" d="M2547.23,2549.61l0.14-6.63h1.46l0.13,6.63h-1.74Zm0.07-7.78v-1.55h1.61v1.55h-1.61Z" transform="translate(-2441.33 -2485.71)"/><path class="cls-2" d="M2550.85,2547v-1.46h0.41a0.27,0.27,0,0,0,.29-0.3l0.61-7.59h1.79l1.92,4.45,0.46,1.25h0c0.16-.48.31-0.89,0.46-1.25l1.92-4.45h1.79l0.61,7.59a0.27,0.27,0,0,0,.29.3h0.41V2547h-1.49a0.85,0.85,0,0,1-.65-0.21,1.12,1.12,0,0,1-.23-0.69l-0.32-4.16c0-.18,0-0.4,0-0.64v-0.81h0a12.6,12.6,0,0,1-.51,1.45l-1.55,3.45h-1.39l-1.55-3.45c-0.07-.16-0.15-0.36-0.24-0.6s-0.16-.45-0.21-0.61l-0.07-.25h0a11.51,11.51,0,0,1,0,1.46l-0.3,4.16a1.1,1.1,0,0,1-.24.69,0.87,0.87,0,0,1-.66.21h-1.49Z" transform="translate(-2441.33 -2485.71)"/><path class="cls-2" d="M2562.83,2545a1.86,1.86,0,0,1,.21-0.9,1.63,1.63,0,0,1,.59-0.63,4.85,4.85,0,0,1,.78-0.4,3.77,3.77,0,0,1,.9-0.23l0.83-.09,0.68,0H2567v-0.05a1.43,1.43,0,0,0-.29-1,1.28,1.28,0,0,0-.94-0.3,1.86,1.86,0,0,0-.6.1,0.36,0.36,0,0,0-.29.35v0.36h-1.55v-0.71a1.07,1.07,0,0,1,.27-0.74,1.47,1.47,0,0,1,.71-0.43,5.67,5.67,0,0,1,.79-0.17,5.17,5.17,0,0,1,.69,0q2.9,0,2.9,2.67v2.5a0.26,0.26,0,0,0,.29.29h0.53V2547H2568a0.88,0.88,0,0,1-.64-0.21,0.7,0.7,0,0,1-.21-0.53V2546h0l-0.06.13a1.72,1.72,0,0,1-.21.28,2.28,2.28,0,0,1-.38.36,2.21,2.21,0,0,1-.58.28,2.47,2.47,0,0,1-.79.13,2.42,2.42,0,0,1-1.62-.57A1.89,1.89,0,0,1,2562.83,2545Zm1.69-.08a0.83,0.83,0,0,0,.26.61,1,1,0,0,0,.75.26,1.33,1.33,0,0,0,1.08-.56,1.91,1.91,0,0,0,.44-1.21v-0.16h-0.29Q2564.51,2543.91,2564.51,2545Zm0.8-5.53,1-1.79h1.61l-1.38,1.79h-1.22Z" transform="translate(-2441.33 -2485.71)"/><path class="cls-2" d="M2570.42,2545.94l0.79-1.09a3.48,3.48,0,0,0,.27.27,3.59,3.59,0,0,0,.7.44,2.18,2.18,0,0,0,1,.28,1.16,1.16,0,0,0,.66-0.16,0.55,0.55,0,0,0,.25-0.49,0.59,0.59,0,0,0-.36-0.47,5.58,5.58,0,0,0-.88-0.42q-0.52-.2-1-0.46a2.54,2.54,0,0,1-.89-0.71,1.77,1.77,0,0,1,.38-2.52,3.26,3.26,0,0,1,1.86-.5,4.29,4.29,0,0,1,.76.07,3.69,3.69,0,0,1,.75.22,1.48,1.48,0,0,1,.61.44,1,1,0,0,1,.23.67v0.7h-1.47v-0.33a0.38,0.38,0,0,0-.26-0.35,1.31,1.31,0,0,0-.58-0.13,1.48,1.48,0,0,0-.73.16,0.5,0.5,0,0,0-.27.45,0.61,0.61,0,0,0,.37.51,5.18,5.18,0,0,0,.89.4c0.35,0.12.7,0.26,1,.42a2.47,2.47,0,0,1,.89.68,1.63,1.63,0,0,1,.37,1.07,1.79,1.79,0,0,1-.73,1.5,3,3,0,0,1-1.85.56,3.77,3.77,0,0,1-1.52-.3,3.27,3.27,0,0,1-1-.59Z" transform="translate(-2441.33 -2485.71)"/><path class="cls-2" d="M2581.49,2549.61V2542a0.26,0.26,0,0,0-.29-0.29h-0.53v-1.42h1.49q0.84,0,.84.65v0.26h0l0.07-.11a2.2,2.2,0,0,1,.23-0.26,2.35,2.35,0,0,1,.4-0.32,2.55,2.55,0,0,1,.61-0.26,2.8,2.8,0,0,1,.82-0.12,2.69,2.69,0,0,1,2.17,1,3.82,3.82,0,0,1,.82,2.54,3.67,3.67,0,0,1-.87,2.55,2.84,2.84,0,0,1-2.21,1,2.49,2.49,0,0,1-1.07-.23,2.07,2.07,0,0,1-.67-0.43l-0.18-.22h0a4.83,4.83,0,0,1,0,.58v2.78h-1.66Zm1.62-5.95a2.45,2.45,0,0,0,.43,1.45,1.42,1.42,0,0,0,1.22.61,1.54,1.54,0,0,0,1.21-.56,2.24,2.24,0,0,0,.49-1.52,2.4,2.4,0,0,0-.46-1.53,1.48,1.48,0,0,0-1.21-.58,1.56,1.56,0,0,0-1.2.53A2.28,2.28,0,0,0,2583.11,2543.66Z" transform="translate(-2441.33 -2485.71)"/><path class="cls-2" d="M2590.39,2546.14a3.53,3.53,0,0,1,0-5,3.67,3.67,0,0,1,2.61-1,3.71,3.71,0,0,1,2.62,1,3.53,3.53,0,0,1,0,5A3.95,3.95,0,0,1,2590.39,2546.14Zm0.62-2.52a2.06,2.06,0,0,0,.58,1.51,2,2,0,0,0,2.83,0,2.24,2.24,0,0,0,0-3,1.92,1.92,0,0,0-1.42-.59,1.9,1.9,0,0,0-1.41.59A2.06,2.06,0,0,0,2591,2543.62Z" transform="translate(-2441.33 -2485.71)"/><path class="cls-2" d="M2598.53,2547v-5a0.26,0.26,0,0,0-.29-0.29h-0.53v-1.42h1.53a0.76,0.76,0,0,1,.9.82v0.4l0,0.42h0a2.64,2.64,0,0,1,.81-1.24,2,2,0,0,1,1.32-.49l0.3,0v1.65a2.73,2.73,0,0,0-.41,0,1.89,1.89,0,0,0-1.83,1.41,4,4,0,0,0-.14,1.09V2547h-1.66Z" transform="translate(-2441.33 -2485.71)"/><path class="cls-2" d="M2608.12,2544.52v-2.92h-0.87v-1.33h0.91v-1.83h1.63v1.83h1.53v1.33h-1.53v2.71a1.09,1.09,0,0,0,.42,1,1.64,1.64,0,0,0,.91.27l0.3,0V2547a3,3,0,0,1-.51,0,4.5,4.5,0,0,1-.66,0,3.32,3.32,0,0,1-.72-0.2,2.42,2.42,0,0,1-.71-0.42,2,2,0,0,1-.5-0.74A2.87,2.87,0,0,1,2608.12,2544.52Z" transform="translate(-2441.33 -2485.71)"/><path class="cls-2" d="M2613.35,2546.08V2542a0.26,0.26,0,0,0-.29-0.29h-0.53v-1.42h1.59a0.9,0.9,0,0,1,.67.22,0.94,0.94,0,0,1,.21.68v4.12a0.26,0.26,0,0,0,.29.29h0.53V2547h-1.59a0.93,0.93,0,0,1-.67-0.21A0.94,0.94,0,0,1,2613.35,2546.08Zm0.08-6.91v-1.54h1.45v1.54h-1.45Z" transform="translate(-2441.33 -2485.71)"/><path class="cls-2" d="M2617.93,2544.28l-0.15-6.65h1.74l-0.13,6.65h-1.46Zm-0.08,2.7v-1.55h1.62V2547h-1.62Z" transform="translate(-2441.33 -2485.71)"/></svg>