<svg id="Layer_1" data-name="Layer 1" xmlns="http://www.w3.org/2000/svg" viewBox="0 0 230.88 85.19"><defs><style>.cls-1{fill:#d4d4d4;}.cls-2{fill:#fff;opacity:0.5;}.cls-3,.cls-5{fill:#989898;}.cls-4{font-size:32.93px;fill:#e8e8e8;}.cls-4,.cls-5{font-family:Avenir;}.cls-5{font-size:12.17px;}</style></defs><title>clients-imtt</title><circle class="cls-1" cx="39.55" cy="17.72" r="9.73"/><circle class="cls-1" cx="1957.28" cy="2538.83" r="9.73" transform="translate(-3116.25 480.55) rotate(-60)"/><circle class="cls-1" cx="1914.19" cy="2538.83" r="9.73" transform="translate(-2909.2 -1186.43) rotate(-30)"/><circle class="cls-1" cx="39.55" cy="67.47" r="9.73"/><circle class="cls-1" cx="1914.19" cy="2513.96" r="9.73" transform="translate(-3116.22 431.05) rotate(-60)"/><circle class="cls-1" cx="1957.28" cy="2513.96" r="9.73" transform="translate(-2890.88 -1168.5) rotate(-30)"/><circle class="cls-2" cx="39.55" cy="19.87" r="19.87"/><circle class="cls-2" cx="1955.42" cy="2537.76" r="19.87" transform="translate(-3116.24 478.48) rotate(-60)"/><circle class="cls-2" cx="1916.05" cy="2537.76" r="19.87" transform="matrix(0.87, -0.5, 0.5, 0.87, -2908.35, -1185.8)"/><circle class="cls-2" cx="39.55" cy="65.32" r="19.87"/><circle class="cls-2" cx="1916.05" cy="2515.03" r="19.87" transform="translate(-3116.23 433.09) rotate(-60)"/><circle class="cls-2" cx="1955.42" cy="2515.03" r="19.87" transform="matrix(0.87, -0.5, 0.5, 0.87, -2891.76, -1169.04)"/><circle class="cls-3" cx="1935.74" cy="2526.39" r="11.37" transform="translate(-2889.96 -1201.48) rotate(-29.53)"/><text class="cls-4" transform="translate(81.5 39.73)">IMTT</text><text class="cls-5" transform="translate(81.5 55.03)">Generando conocimientos<tspan x="0" y="14.6">del futu</tspan><tspan x="44.41" y="14.6">r</tspan><tspan x="48.92" y="14.6">o</tspan></text></svg>